<svg width="600" height="509" viewBox="0 0 600 509" fill="none" xmlns="http://www.w3.org/2000/svg">
<ellipse cx="357.708" cy="242.62" rx="240.292" ry="242.62" fill="#F6EBD5"/>
<path d="M395.003 278.066H381.936C382.993 273.425 382.253 262.586 370.834 256.349C356.561 248.554 359.204 242.428 360.261 240.201C359.204 237.417 357.089 233.519 361.318 229.064C360.261 227.394 361.318 219.598 365.548 219.041C361.671 215.886 352.808 202.289 354.307 199.921C357.055 195.58 369.248 208.462 371.891 212.916C371.891 209.018 374.534 205.677 378.235 209.575C381.935 213.473 389.865 225.723 393.037 234.076C396.209 242.428 399.954 266.372 399.139 270.27C397.765 272.875 396.382 275.476 395.003 278.066Z" fill="#F4B5A6"/>
<path d="M381.274 278.066V309.639C385.844 299.556 391.394 288.9 397.004 278.066H384.138H381.274Z" fill="#2A7C8D"/>
<path d="M371.436 211.202C371.7 209.733 372.337 208.422 373.325 207.688C374.011 207.178 374.847 206.966 375.772 207.176C376.681 207.382 377.637 207.984 378.616 209.015C380.525 211.026 383.486 215.142 386.361 219.79C389.24 224.443 392.064 229.679 393.685 233.946C395.31 238.224 397.064 246.43 398.307 254.023C398.93 257.827 399.428 261.496 399.719 264.464C399.864 265.947 399.958 267.262 399.989 268.335C400.02 269.392 399.992 270.262 399.874 270.828L399.857 270.908L399.819 270.98C398.432 273.612 397.034 276.239 395.641 278.855L394.71 278.305C396.09 275.714 397.472 273.114 398.846 270.51C398.922 270.08 398.951 269.36 398.922 268.37C398.891 267.334 398.8 266.048 398.656 264.579C398.369 261.643 397.875 258.001 397.255 254.214C396.012 246.623 394.273 238.521 392.694 234.364C391.11 230.196 388.328 225.03 385.467 220.404C382.602 215.773 379.689 211.736 377.861 209.81C376.971 208.873 376.19 208.421 375.548 208.275C374.921 208.133 374.389 208.273 373.941 208.607C373.03 209.283 372.4 210.824 372.366 212.631L378.289 222.838L378.211 223.086C377.517 225.277 376.922 228.757 377.378 232.05C377.832 235.325 379.31 238.345 382.713 239.821L382.307 240.861C378.447 239.187 376.811 235.741 376.321 232.212C375.852 228.825 376.424 225.298 377.12 222.981L371.378 213.085L371.376 213.082L371.436 211.202Z" fill="#F78F76"/>
<path d="M395.506 278.855L381.935 278.066L400.001 265.941C400.146 267.926 400.158 269.421 400.001 270.172C398.628 272.778 396.886 276.265 395.506 278.855Z" fill="#291A0C"/>
<rect y="480.827" width="600" height="1.57869" fill="#21202A"/>
<path d="M51.6633 460.56C50.5236 476.568 63.8503 483.486 72.2381 479.249C87.372 472.744 98.9305 478.197 114.981 480.928C124.263 458.578 130.195 446.163 126.966 439.092C125.06 438.585 123.294 438.063 121.682 437.525C88.2876 426.388 93.0975 367.784 90.6767 365.585C79.7035 355.618 71.9252 363.866 69.4077 369.236C63.8728 394.342 52.575 447.755 51.6633 460.56Z" fill="#C55703"/>
<path d="M126.966 439.092C125.06 438.584 123.294 438.062 121.682 437.525C102.885 431.256 96.1926 409.949 93.5014 392.126L69.4077 369.236C66.5471 382.211 62.1472 402.748 58.4373 421.332L95.5056 476.957C101.582 477.957 107.836 479.712 114.981 480.927C124.263 458.578 130.195 446.162 126.966 439.092Z" fill="#363636"/>
<path d="M90.7169 365.291C79.7437 355.324 71.9654 363.572 69.4479 368.943C68.7449 372.131 67.9489 375.777 67.093 379.738C77.2629 385.719 87.6385 382.963 92.1348 381.47C92.5094 380.681 92.5094 367.657 90.7169 365.291Z" fill="#A34904"/>
<path d="M51.6854 461.194C50.5457 477.201 64.2718 484.375 72.6596 480.138C76.6799 478.41 80.7413 477.1 84.8393 476.159C73.9651 452.075 58.0727 456.062 51.6854 461.194Z" fill="#A34904"/>
<path d="M114.981 480.927C112.139 459.992 119.405 447.083 123.97 441.855C127.245 442.712 130.337 441.46 135.668 441.549C132.768 449.736 127.731 467.156 126.592 480.927C122.472 480.927 119.476 480.927 114.981 480.927Z" fill="#363636"/>
<path d="M328.386 412.492C310.262 402.998 160.348 444.505 119.85 442.093L125.843 480.928C218.352 480.928 315.976 481.322 387.266 481.322C379.765 445.119 337.292 417.158 328.386 412.492Z" fill="#0F35B7"/>
<path d="M125.843 480.927L119.85 442.093C136.514 443.085 171.704 436.642 208.614 429.375L134.831 480.929C131.831 480.928 128.834 480.927 125.843 480.927Z" fill="#1F1F1A"/>
<path d="M387.266 481.322C379.764 445.119 341.037 421.439 332.13 416.773L332.067 416.74C325.614 413.359 316.76 408.72 288.015 414.228C297.503 433.482 322.397 473.098 356.554 481.322C365.401 481.438 378.895 481.322 387.266 481.322Z" fill="#1F1F1A"/>
<path d="M125.525 475.402C121.808 484.341 107.47 488.251 98.443 475.402C93.1024 467.8 78.3335 439.565 66.4202 416.183C62.2239 407.947 58.3819 400.313 55.431 394.395C54.015 388.622 54.7938 377.076 69.2373 377.076C70.3972 377.076 75.1844 382.547 82.3527 388.808C94.8768 399.747 114.669 413.097 135.083 403.892C139.864 401.737 145.663 398.463 152.183 394.395C152.324 401.099 157.491 417.842 177.033 430.357C173.473 431.813 167.187 434.613 160.041 439.17C148.002 446.847 133.522 458.925 125.525 475.402Z" fill="#C55703"/>
<path d="M177.033 430.357C173.472 431.813 167.186 434.613 160.04 439.17C154.243 442.867 147.88 447.584 141.947 453.322C122.472 445.761 122.884 419.062 125.524 406.658C128.678 406.229 131.873 405.34 135.083 403.892C139.863 401.737 145.662 398.463 152.182 394.395C152.323 401.099 157.491 417.842 177.033 430.357Z" fill="#363636"/>
<path d="M68.7481 376.734C54.5421 376.734 53.7761 388.386 55.1689 394.212C58.0712 400.185 61.85 407.889 65.9773 416.201C70.2778 413.006 79.4327 402.613 81.6478 388.18C74.5974 381.861 69.8889 376.734 68.7481 376.734Z" fill="#A34904"/>
<path d="M125.843 474.613C122.097 484.874 107.116 487.922 98.1273 475.038C102.534 467.569 114.844 456.687 125.843 474.613Z" fill="#A34904"/>
<path d="M160.3 439.092C167.445 434.513 173.219 431.492 176.779 430.028C157.239 417.453 152.071 400.836 151.93 394.1C145.411 398.188 139.612 401.477 134.831 403.643C137.486 412.68 146.707 432.421 160.3 439.092Z" fill="#31BC68"/>
<path d="M431.46 441.13C414.011 426.742 375.602 378.932 358.579 356.826C335.704 320.293 302.721 301.746 291.55 301.746C271.335 301.746 170.412 378.313 130.337 403.177C125.142 411.607 127.076 448.145 156.929 458.036C198.923 429.272 234.457 414.622 276.405 378.313C310.983 457.559 358.951 481.322 385.018 481.322C422.469 481.322 430.396 453.87 431.46 441.13Z" fill="#0F35B7"/>
<path d="M273.034 381.118C274.393 380.078 275.517 379.14 276.405 378.313C278.252 382.548 280.139 386.625 282.058 390.548L276.405 362.131L273.034 381.118Z" fill="#19256D"/>
<path d="M260.3 317.576C271.469 330.352 299.708 348.237 323.308 317.576" stroke="#718FF4"/>
<path d="M291.55 301.746C286.931 301.746 278.204 306.176 267.041 313.212C273.231 322.428 291.957 335.33 317.338 313.212C306.231 305.586 296.633 301.746 291.55 301.746Z" fill="#718FF4"/>
<path d="M337.828 305.693V295.592H255.14L202.327 187.292H193.258L250.339 305.693H337.828Z" fill="#21202A"/>
<rect x="0.687265" y="-0.0410851" width="6.71865" height="6.67062" transform="matrix(0.643987 -0.765036 0.730543 0.682866 233.233 197.656)" stroke="black"/>
<rect x="0.687265" y="-0.0410851" width="6.71865" height="6.67062" transform="matrix(0.643987 -0.765036 0.730543 0.682866 273.683 218.179)" stroke="black"/>
<rect x="0.687265" y="-0.0410851" width="6.71865" height="6.67062" transform="matrix(0.643987 -0.765036 0.730543 0.682866 266.192 267.908)" stroke="black"/>
<path d="M255.141 295.593L202.328 187.292L258.427 107.173L330.712 272.146L255.141 295.593Z" fill="url(#paint0_linear_2_317)"/>
<path d="M423.97 162.822C431.513 162.822 429.768 209.643 429.588 215.313L474.157 199.921V170.504V147.824L423.97 162.822Z" fill="#F4B5A6"/>
<path d="M423.97 162.822C428.256 162.822 429.543 177.935 429.823 192.028L459.551 152.189L423.97 162.822Z" fill="#291A0C"/>
<path d="M425.468 168.9C430.153 168.9 432.174 174.136 432.986 179.398L442.697 157.297L425.468 168.9Z" fill="#B43034"/>
<path d="M425.468 480.533C361.798 487.242 396.629 398.046 358.801 357.148C359.688 357.148 362.526 354.9 368.912 354.9C360.93 320.613 421.348 246.887 429.213 205.386C443.82 194.001 441.573 195.58 474.157 186.502C496.629 225.18 483.162 348.966 466.667 394.494C444.709 441.757 436.704 456.458 425.468 480.533Z" fill="#50B0C4"/>
<path d="M423.97 478.954C412.859 479.612 387.64 468.773 387.64 435.935C387.64 398.441 373.408 371.208 362.547 358.184" stroke="black"/>
<path d="M466.667 394.494C465.98 395.973 465.307 397.419 464.647 398.836C412.36 381.47 390.637 349.502 368.539 345.95C367.803 337.566 370.128 332.421 374.561 321.085L478.652 344.117C475.298 364.438 471.092 382.282 466.667 394.494Z" fill="#291A0C"/>
<path d="M474.157 186.502C461.049 195.185 449.438 203.078 429.214 205.386C427.341 203.301 423.221 198.974 421.723 198.342C420.225 197.711 456.055 185.318 474.157 180.582V186.502Z" fill="#C75605"/>
<path d="M468.851 393.076C503.745 399.913 512.36 210.183 474.157 186.502C457.678 222.023 437.541 284.035 442.7 319.446C422.242 315.511 378.978 307.192 369.585 305.394C357.843 303.146 359.978 312.139 359.445 316.635C355.175 320.57 356.776 323.38 356.777 325.628C350.799 337.319 361.825 341.741 368.084 342.49C393.802 349.797 422.954 384.083 468.851 393.076Z" fill="#50B0C4"/>
<path d="M462.547 389.758C467.541 392.652 478.652 394.415 483.146 378.313" stroke="black"/>
<path d="M368.084 342.49C361.825 341.74 350.799 337.319 356.777 325.628C356.776 323.38 355.175 320.569 359.445 316.635C359.978 312.138 357.843 303.145 369.585 305.394C378.978 307.192 422.242 315.511 442.7 319.445M442.7 319.445C439.37 296.585 446.582 262.638 456.546 231.889M442.7 319.445L450.562 333.715" stroke="black"/>
<path d="M359.872 316.593C355.591 320.555 357.196 323.386 357.197 325.65L321.348 326.216C312.788 323.574 295.559 315.461 295.131 304.139C301.552 306.404 329.909 310.366 325.629 292.818C324.559 288.855 319.743 286.025 322.418 282.063C322.953 280.93 335.259 299.368 362.547 305.999C359.347 308.252 360.238 313.487 359.872 316.593Z" fill="#F4B5A6"/>
<path d="M359.872 316.593C355.591 320.555 357.196 323.385 357.197 325.65L355.056 325.684L357.197 304.495C358.912 305.044 360.695 305.549 362.547 305.999C359.347 308.252 360.238 313.487 359.872 316.593Z" fill="#291A0C"/>
<path d="M322.479 283.475C322.406 283.408 322.343 283.351 322.288 283.304C321.873 284.042 321.765 284.708 321.831 285.336C321.909 286.088 322.241 286.845 322.725 287.663C323.015 288.153 323.328 288.616 323.654 289.101L323.654 289.101L323.654 289.101C323.892 289.454 324.137 289.818 324.387 290.211C324.953 291.104 325.489 292.075 325.778 293.143L325.782 293.157C326.331 295.404 326.366 297.345 325.963 299.012C325.559 300.683 324.722 302.043 323.578 303.133C321.311 305.296 317.852 306.386 314.158 306.847C307.275 307.706 299.247 306.419 295.536 305.311C296.102 310.304 300.13 314.706 305.237 318.248C310.549 321.933 316.864 324.571 321.083 325.879L344.195 325.515V326.639L320.939 327.005L320.862 326.982C316.57 325.66 310.108 322.971 304.653 319.187C299.233 315.428 294.637 310.467 294.413 304.556L294.382 303.743L295.113 304C298.237 305.1 306.803 306.633 314.033 305.731C317.653 305.279 320.844 304.227 322.865 302.299C323.867 301.344 324.584 300.172 324.932 298.734C325.281 297.292 325.267 295.549 324.753 293.445C324.51 292.55 324.049 291.697 323.503 290.837C323.293 290.505 323.059 290.157 322.823 289.806L322.823 289.806C322.474 289.287 322.119 288.759 321.823 288.259C321.31 287.392 320.878 286.463 320.773 285.459C320.667 284.438 320.905 283.396 321.628 282.319C321.678 282.234 321.75 282.152 321.851 282.094C321.97 282.024 322.089 282.009 322.183 282.013C322.35 282.021 322.49 282.094 322.572 282.143C322.751 282.248 322.96 282.427 323.18 282.63C323.523 282.947 323.978 283.408 324.535 283.973L324.535 283.973C324.708 284.149 324.892 284.335 325.086 284.53C326.725 286.184 329.136 288.556 332.372 291.166C333.68 292.221 335.123 293.315 336.704 294.416L338.202 296.756C335.762 295.172 333.607 293.576 331.726 292.059C328.446 289.412 326.002 287.009 324.351 285.342C324.148 285.138 323.959 284.946 323.782 284.767L323.781 284.767C323.231 284.209 322.802 283.774 322.479 283.475Z" fill="#F68F76"/>
<path d="M403.583 87.9068C401.475 142.608 403.588 185.713 422.472 185.713C430.995 185.713 459.088 165.137 470.037 149.798C483.392 103.433 419.302 81.791 403.583 87.9068Z" fill="#F4B5A6"/>
<path d="M453.558 130.853C457.113 130.469 462.265 131.53 461.872 137.168M458.801 145.456C460.823 141.963 461.726 139.253 461.872 137.168M461.872 137.168C459.35 138.747 454.307 140.641 454.307 135.59" stroke="#F68F87"/>
<path fill-rule="evenodd" clip-rule="evenodd" d="M322.7 376.751L323.649 376.246L359.355 449.364C360.279 446.095 362.192 441.795 365.339 438.047C368.981 433.711 374.288 430.1 381.62 429.709L381.681 430.827C374.688 431.199 369.634 434.632 366.142 438.79C362.753 442.826 360.849 447.534 360.107 450.737C363.842 454.329 374.22 460.579 387.512 458.093L387.706 459.195C373.737 461.807 362.874 455.068 359.15 451.324L359.084 451.258L322.7 376.751Z" fill="#718FF4"/>
<path d="M431.461 152.561C431.461 155.176 429.616 157.297 427.341 157.297C425.065 157.297 423.221 155.176 423.221 152.561C423.221 149.945 425.065 147.824 427.341 147.824C429.616 147.824 431.461 149.945 431.461 152.561Z" fill="#FB4348" fill-opacity="0.33"/>
<path d="M405.993 102.043C405.993 103.49 405.393 107.568 402.996 112.304C401.873 111.12 401.124 107.568 400.749 102.043C399.352 104.619 395.35 109.597 395.119 115.057C395.126 115.458 395.131 115.856 395.131 116.251C395.106 115.851 395.103 115.453 395.119 115.057C394.972 106.622 393.769 96.5354 412.359 80.3356C436.509 59.2923 481.679 65.2311 492.884 97.7011C493.633 99.2798 497.004 108.752 499.625 109.936H495.131L498.502 119.803L493.258 115.461C494.382 122.171 487.041 156.507 474.157 177.03C465.918 174.267 462.172 170.321 457.678 152.955C474.532 142.299 464.045 121.776 449.438 128.486C447.566 128.486 437.079 126.512 440.824 116.251C439.7 116.251 414.981 120.592 405.993 102.043Z" fill="#C75903"/>
<path d="M270.037 378.313L157.303 454.879C147.566 450.011 128.465 432.067 134.457 403.966" stroke="#718FF4"/>
<path d="M69.2884 416.99L98.8764 470.271" stroke="#A34904"/>
<defs>
<linearGradient id="paint0_linear_2_317" x1="216.854" y1="262.674" x2="303.224" y2="216.046" gradientUnits="userSpaceOnUse">
<stop stop-color="white"/>
<stop offset="1" stop-color="white" stop-opacity="0"/>
</linearGradient>
</defs>
</svg>
