<svg width="88" height="88" viewBox="0 0 88 88" fill="none" xmlns="http://www.w3.org/2000/svg">
<rect width="88" height="88" rx="10" fill="#009BFF"/>
<path d="M56.3754 57.0625C49.5004 55.7563 49.5004 53.625 49.5004 52.25V51.425C51.2455 49.7913 52.4861 47.6918 53.0754 45.375H53.1441C55.2066 45.375 55.7566 41.0438 55.7566 40.3563C55.7566 39.6688 55.8254 37.125 53.6941 37.125C58.1629 24.75 46.1316 19.8 37.0566 26.125C33.3441 26.125 33.0004 31.625 34.3754 37.125C32.2441 37.125 32.3129 39.7375 32.3129 40.3563C32.3129 40.975 32.7941 45.375 34.9254 45.375C35.5147 47.6918 36.7553 49.7913 38.5004 51.425V52.25C38.5004 53.625 38.5004 55.825 31.6254 57.0625C29.7012 57.4027 27.9194 58.3009 26.5016 59.6455C25.0837 60.99 24.0922 62.7216 23.6504 64.625H64.3504C63.8924 62.7294 62.8958 61.0068 61.4808 59.6649C60.0657 58.3231 58.2926 57.4193 56.3754 57.0625Z" fill="white"/>
</svg>
