<?xml version="1.0" encoding="utf-8"?>
<!-- Generator: Adobe Illustrator 24.1.1, SVG Export Plug-In . SVG Version: 6.00 Build 0)  -->
<svg version="1.1" id="Layer_1" xmlns="http://www.w3.org/2000/svg" xmlns:xlink="http://www.w3.org/1999/xlink" x="0px" y="0px"
	 viewBox="0 0 561.6 525.6" style="enable-background:new 0 0 561.6 525.6;" xml:space="preserve">
<style type="text/css">
	.st0{fill:#F6EBD5;}
	.st1{clip-path:url(#SVGID_2_);fill:#F6EBD5;filter:url(#Adobe_OpacityMaskFilter);}
	.st2{clip-path:url(#SVGID_2_);mask:url(#mask0_2_191_1_);}
	.st3{fill:#F4B5A6;}
	.st4{fill:#291A0C;}
	.st5{fill:none;stroke:#F68F87;}
	.st6{fill:#FB4348;fill-opacity:0.33;}
	.st7{fill:#C75903;}
	.st8{fill:#3C9BAE;}
	.st9{fill:#FFFFFF;stroke:#000000;}
	.st10{fill:none;stroke:#000000;}
	.st11{fill:#4FB1C5;}
	.st12{fill:#44A6BA;}
	.st13{fill:#0F35B7;}
	.st14{fill:#040404;}
</style>
<ellipse class="st0" cx="280.8" cy="262.8" rx="280" ry="261"/>
<g>
	<defs>
		<ellipse id="SVGID_1_" cx="279.3" cy="263.9" rx="280" ry="261"/>
	</defs>
	<clipPath id="SVGID_2_">
		<use xlink:href="#SVGID_1_"  style="overflow:visible;"/>
	</clipPath>
	<defs>
		<filter id="Adobe_OpacityMaskFilter" filterUnits="userSpaceOnUse" x="170.8" y="40.4" width="179.9" height="552.8">
			<feColorMatrix  type="matrix" values="1 0 0 0 0  0 1 0 0 0  0 0 1 0 0  0 0 0 1 0"/>
		</filter>
	</defs>
	<mask maskUnits="userSpaceOnUse" x="170.8" y="40.4" width="179.9" height="552.8" id="mask0_2_191_1_">
		<path class="st1" d="M256.8,1.4h47c144.4,0,261.5,117.1,261.5,261.5l0,0c0,144.4-117.1,261.5-261.5,261.5h-47
			C112.4,524.4-4.7,407.3-4.7,262.9l0,0C-4.7,118.5,112.4,1.4,256.8,1.4z"/>
	</mask>
	<g class="st2">
		<path class="st3" d="M252,115c6.3,0,0.1,47.8,0,52.3l41.8-19.1V121v-17.9L252,115z"/>
		<path class="st4" d="M252,115c3.6,0,2.3,16.1,2.5,27.1l27-35.3L252,115z"/>
		<path class="st3" d="M235.1,59.1c-1.7,43.5,0.2,74.3,15.8,74.3c7,0,30.3-16.4,39.3-28.6C301.2,68,248.1,54.3,235.1,59.1z"/>
		<path class="st5" d="M276.5,89.5c3.1-0.3,7.5,0.5,7.2,5 M281.1,100.9c1.7-2.7,2.5-4.9,2.7-6.5 M283.7,94.4
			c-2.2,1.2-6.5,2.7-6.5-1.2"/>
		<path class="st6" d="M258.5,106.7c0,2-1.6,3.6-3.6,3.6c-2,0-3.6-1.6-3.6-3.6c0-2,1.6-3.6,3.6-3.6
			C256.9,103.1,258.5,104.7,258.5,106.7z"/>
		<path class="st7" d="M237.4,67.2c0,1.1-0.5,4.3-2.5,8.1c-0.9-0.9-1.6-3.7-1.9-8.1c-1.2,2-4.5,5.9-4.7,10.2c0,0.3,0,0.6,0,0.9
			c0-0.3,0-0.6,0-0.9c-0.1-6.6-1.1-14.6,14.4-27.3c20.1-16.6,57.8-11.9,67.2,13.7c0.6,1.2,3.4,8.7,5.6,9.6h-3.7l2.8,7.8l-4.4-3.4
			c0.9,5.3-5.2,32.3-15.9,48.4c-6.9-2.2-10-5.3-13.7-18.9c14.1-8.4,5.3-24.5-6.9-19.3c-1.6,0-10.3-1.6-7.2-9.6
			C265.5,78.3,244.9,81.8,237.4,67.2z"/>
		<path class="st8" d="M227.9,285.5c10.1-74.1,34-114.8,37.9-120.8c-31.4-8.3-52,135.9-50.5,182.4l6.8,18.4
			C222.8,349,227.2,300,227.9,285.5z"/>
		<path class="st9" d="M171.3,434.1l31.5,0.7l27.6,0.7c0.2-23.5,0.7-74.3,0.7-89.4c-21.2,3.4-48.3,1.9-59.1,0.7L171.3,434.1z"/>
		<path class="st10" d="M196.9,424.3h-25.2"/>
		<path class="st10" d="M183.2,359.8c-2.5,14.7-6.1,46.1,0,54.4"/>
		<path class="st10" d="M196.5,360.5v53.4"/>
		<path class="st10" d="M210.2,360.9v53.4"/>
		<path class="st11" d="M256,160.8c11.5,1.4,30.3-14.4,37.9-16.9c0.7,1.1,2.8,3.9,5.4,6.5c6.2,5.4,21.3,17.9,31.7,24.5
			c11.2,7.1,34.2,167.3,6.9,167.3c-4.3,0-14.1-6.1-29.6-21.3c-0.7,8.3,7.6,44.7-4.3,39.3c-7.1-3.2-56.6-1.8-77.1-1.1
			c-1.3-0.1-4-1.2-4-4.7c0-3.5,2.2-50.2,3.2-73.2C227.7,269,242.3,177,256,160.8z"/>
		<path class="st12" d="M337.8,342.1c27.4,0,4.3-160.1-6.9-167.3c-63.4-8.7-31,81.8-27,92.6c-13-11.2-30.3-15-39.7-18
			c-4.6,3.5-12.4,11.1-7.2,13.7c-1.1,5,0,11.9,3.6,13.7c19.9,13,39.8,38.1,47.3,49l0-0.1c0.1-2,0.2-3.7,0.3-4.9
			C323.8,336,333.5,342.1,337.8,342.1z"/>
		<path class="st10" d="M274,341c-1.9,2.5-5.3,9.4-3.6,16.6"/>
		<path class="st10" d="M288.4,305c-3.1,14.9-10,46.1-12.3,51.5"/>
		<path class="st10" d="M270.8,298.9c0.6,1.7,1.7,6.1,1.4,10.5"/>
		<path class="st13" d="M267.2,592.3c4-7.6,8.7-79.3,8.7-96.6c-12.4-33.3-31-106.3-21.6-137.6c-10.2,0.3-20.2,0.7-27.4,0.9
			c-4-5.2-4.6,153.3-4.3,233.2H267.2z"/>
		<path class="st4" d="M275,517.3c0.5-9.4,0.8-17.3,0.8-21.6c-8.2-22.1-11.1-31.2-14.8-64.5C256.7,465.4,266.3,492.3,275,517.3z"/>
		<path class="st10" d="M265,480.2c-7.5,14.5-21.3,53.4-17.3,92.3"/>
		<path class="st10" d="M262.5,470.1c-3.7,3.5-11.3,13.5-11.9,25.6"/>
		<path class="st10" d="M335.7,592.7H296c-4.1-24.8-11.9-60.2-21.3-80c0,17.3-4,72.5-7.9,80"/>
		<path class="st10" d="M233.3,375.6c1.6,10.3,5.8,32.6,10.1,38.9c-6.1-7.9-12.3-22.4-12.6-29.6"/>
		<path class="st10" d="M251.3,449.2c-3.8-0.4-12.1-3-14.4-10.8"/>
		<path class="st13" d="M313,381.8c-3.2-19.6-11.2-24.8-14.8-24.9c-5.1,0-25,0.6-44,1.2c-12.6,23.6,9.7,112.3,21.1,154.5
			c9.6,23.9,17.2,60.5,20.4,79.7h49C335.4,530.3,316.1,401.4,313,381.8z"/>
		<path class="st10" d="M293.8,403c-3.1-3.7-8.8-14.4-11.2-31.5 M281.6,358c0.1,4.9,0.5,9.4,1.1,13.6 M282.7,371.5
			c-2.2-0.3-7.2-3.3-10.1-12.8"/>
		<path class="st10" d="M301.8,359.4c2.2-1.1-9.9-2.2-75.7,2.2"/>
		<path class="st10" d="M294.6,413.9c-3.2,3.2-12,9.7-20.9,9.4"/>
		<path class="st10" d="M259.2,252.4c-4.7,5.5-14.9,22.9-18,48.3"/>
		<path class="st7" d="M251,159c12.3-2.9,35.3-12.6,42.9-15.1c0.7,1.1,2.8,3.9,5.4,6.5c-4.3,10.4-39.4,29.3-48.3,33.2V159z"/>
		<path class="st11" d="M337.8,342.1c27.4,0,4.3-160.1-6.9-167.3c-13.2-1.3-38.4,2.7-33.2,29.2c5.2,26.5,10.8,58.9,13,71.7
			c-15-8.8-45.4-25.8-46.9-23.8c-1.8,2.5-9.7,18.4-0.7,23.8c9,5.4,34.6,27,45.1,45.1C323.8,336,333.5,342.1,337.8,342.1z"/>
		<path class="st7" d="M263.2,275.8c-9-5.4-1.1-21.3,0.7-23.8c0.5-0.7,4.1,0.8,9.4,3.3c-4,4.9-4.8,18.2-4.7,24.2
			C266.5,277.9,264.6,276.6,263.2,275.8z"/>
		<path class="st3" d="M259.8,261.7c1.2-4.5,3.3-8.6,4.2-9.7c-2.2-1.6-7.6-7.3-9.4-17.7c-0.7-2.5-6.5-8.7-26.3-8.3
			c5.4,4.7,15.6,6.2,7.2,7.9c-10.5,2.2-23.4,1.8-32.1-0.7c1.4,2.2,6.8,8.7,13.7,9c-4,0.4-1.1,4.3,6.8,7.2c7.9,2.9,35.5,10.1,35.7,13
			C259.6,262.2,259.7,262,259.8,261.7z"/>
		<path class="st14" d="M235.4,234c8.4-1.7-1.8-3.2-7.2-7.9l-24.9-18.4l-14.8,9.4l19.4,17.3C216.3,235.8,226.7,235.8,235.4,234z"/>
		<path class="st3" d="M220.3,425.4c-0.6,8.1,1.7,10.1,2.9,10.1v4.7c-5,1.4-7.2-2.5-7.9-3.6c-1.7,2.3-3.8,0.7-4.7-0.4
			c-0.4,1.9-1.9,5.8-5.4,6.1c-4.3,0.4-1.8-9-1.8-14.4c0-5.4,2.5-4,3.6-4c4-7.9,7.6-1.1,8.3,1.1C217.4,420.3,220.3,422.9,220.3,425.4
			z"/>
		<path class="st10" d="M208.4,426.1c0.7,1.3,2,4.7,1.4,7.6"/>
		<path class="st10" d="M214.2,427.2c0.5,1.7,1.4,5.4,1.1,6.8"/>
		<path class="st10" d="M336.7,294.5c-2.6-5.3-11.4-16.3-25.2-18c14.1,3.6,23.1,7.2,28.1,14.1"/>
		<path class="st10" d="M315.1,304.3c-5-7.3-17.7-20.9-28.1-16.6"/>
		<path class="st10" d="M292.8,269.7c0,4.9-1.5,16.1-7.6,21.6"/>
		<path class="st10" d="M303.2,167.6l11.5,8.3c-7.7,1.4-21.9,9.1-17.3,28.1"/>
	</g>
</g>
</svg>
